<?xml version="1.0" encoding="utf-8"?>
<!-- Generator: Adobe Illustrator 26.0.3, SVG Export Plug-In . SVG Version: 6.00 Build 0)  -->
<svg version="1.1" id="Layer_1" xmlns="http://www.w3.org/2000/svg" xmlns:xlink="http://www.w3.org/1999/xlink" x="0px" y="0px"
	 viewBox="0 0 16 16" style="enable-background:new 0 0 16 16;" xml:space="preserve">
<style type="text/css">
	.st0{fill-rule:evenodd;clip-rule:evenodd;fill:#FFFFFF;}
</style>
<path class="st0" d="M3.1,3.7L8,2l4.9,1.7c0.2,1.8,0.1,3.7-0.6,5.4c-0.7,1.8-2,3.5-4.3,4.8c-2.4-1.3-3.7-3-4.3-4.8
	C3,7.4,2.9,5.5,3.1,3.7z M2.4,2.9L7.8,1c0.1,0,0.2,0,0.3,0l5.4,1.9c0.2,0.1,0.3,0.2,0.3,0.4c0.4,3.9-0.2,8.7-5.7,11.6
	c-0.1,0.1-0.3,0.1-0.5,0C2.3,12,1.7,7.2,2.1,3.3C2.1,3.1,2.3,2.9,2.4,2.9z"/>
</svg>
