<svg width="33" height="32" viewBox="0 0 33 32" fill="none" xmlns="http://www.w3.org/2000/svg">
<path d="M0.5 7.53623C0.5 3.37409 3.87409 0 8.03623 0H24.9638C29.1259 0 32.5 3.37409 32.5 7.53623V24.4638C32.5 28.6259 29.1259 32 24.9638 32H8.03623C3.87409 32 0.5 28.6259 0.5 24.4638V7.53623Z" fill="white"/>
<path d="M6.41406 22.2609V9.73913C6.41406 8.58654 7.34842 7.65218 8.50102 7.65218H12.4149C12.8098 7.65218 13.1944 7.7782 13.5127 8.01191L14.8226 8.9736C15.141 9.20731 15.5256 9.33334 15.9205 9.33334H24.501C25.6536 9.33334 26.588 10.2677 26.588 11.4203V22.2609C26.588 23.4135 25.6536 24.3478 24.501 24.3478H8.50102C7.34842 24.3478 6.41406 23.4135 6.41406 22.2609Z" fill="url(#paint0_linear_4807_406321)"/>
<path fill-rule="evenodd" clip-rule="evenodd" d="M15.9205 9.33334H17.2546H22.4141H24.501C25.6536 9.33334 26.588 10.2677 26.588 11.4203V22.2609C26.588 23.4135 25.6536 24.3478 24.501 24.3478H22.2981V13.4587C22.2981 12.5585 21.5657 11.8303 20.6656 11.8355L12.7636 11.881C12.4233 11.883 12.0909 11.778 11.8136 11.5807L10.0538 10.3294C9.77908 10.1339 9.4503 10.029 9.11316 10.029H6.41406V9.73913C6.41406 8.58651 7.34843 7.65218 8.50102 7.65218H12.4149C12.8098 7.65218 13.1944 7.77819 13.5127 8.01189L14.8226 8.97362C15.141 9.20732 15.5256 9.33334 15.9205 9.33334Z" fill="url(#paint1_linear_4807_406321)"/>
<defs>
<linearGradient id="paint0_linear_4807_406321" x1="6" y1="25" x2="16.2377" y2="14.2725" gradientUnits="userSpaceOnUse">
<stop stop-color="#ED5FC8"/>
<stop offset="0.988738" stop-color="#6D4AFF"/>
</linearGradient>
<linearGradient id="paint1_linear_4807_406321" x1="-0.368547" y1="4.86957" x2="24.8488" y2="32.5797" gradientUnits="userSpaceOnUse">
<stop stop-color="#6D4AFF"/>
<stop offset="0.35934" stop-color="#AE8CFF"/>
<stop offset="1" stop-color="#F8CCFF"/>
</linearGradient>
</defs>
</svg>
