<svg width="33" height="32" viewBox="0 0 33 32" fill="none" xmlns="http://www.w3.org/2000/svg">
<path d="M0.5 7.53623C0.5 3.37409 3.87409 0 8.03623 0H24.9638C29.1259 0 32.5 3.37409 32.5 7.53623V24.4638C32.5 28.6259 29.1259 32 24.9638 32H8.03623C3.87409 32 0.5 28.6259 0.5 24.4638V7.53623Z" fill="white"/>
<path d="M6.41309 8.64015C6.41309 8.24732 6.87094 8.0324 7.17315 8.28337L15.1667 14.9217C15.9397 15.5636 17.0604 15.5636 17.8334 14.9217L25.8269 8.28337C26.1291 8.0324 26.587 8.24732 26.587 8.64015V22.2609C26.587 23.4135 25.6526 24.3478 24.5 24.3478H8.50004C7.34745 24.3478 6.41309 23.4135 6.41309 22.2609V8.64015Z" fill="#6D4AFF"/>
<path fill-rule="evenodd" clip-rule="evenodd" d="M19.2236 13.7656L19.2247 13.7665L15.199 17.3225C14.5133 17.9283 13.4882 17.9436 12.7847 17.3585L6.41309 12.0595V8.63856C6.41309 8.24573 6.87094 8.03081 7.17315 8.28179L15.1667 14.9201C15.9397 15.5621 17.0604 15.5621 17.8334 14.9201L19.2236 13.7656Z" fill="url(#paint0_linear_4807_406307)"/>
<path fill-rule="evenodd" clip-rule="evenodd" d="M22.2969 11.2148V24.3478H24.4998C25.6524 24.3478 26.5867 23.4134 26.5867 22.2609V8.64017C26.5867 8.24733 26.1289 8.03238 25.8267 8.28339L22.2969 11.2148Z" fill="url(#paint1_linear_4807_406307)"/>
<defs>
<linearGradient id="paint0_linear_4807_406307" x1="21.6305" y1="16.0854" x2="17.0321" y2="-3.54599" gradientUnits="userSpaceOnUse">
<stop stop-color="#E2DBFF"/>
<stop offset="1" stop-color="#6D4AFF"/>
</linearGradient>
<linearGradient id="paint1_linear_4807_406307" x1="32.7317" y1="34.9855" x2="17.039" y2="1.46268" gradientUnits="userSpaceOnUse">
<stop offset="0.271019" stop-color="#E2DBFF"/>
<stop offset="1" stop-color="#6D4AFF"/>
</linearGradient>
</defs>
</svg>
