<?xml version="1.0" encoding="utf-8"?>
<!-- Generator: Adobe Illustrator 25.1.0, SVG Export Plug-In . SVG Version: 6.00 Build 0)  -->
<svg version="1.1" id="Layer_1" xmlns="http://www.w3.org/2000/svg" xmlns:xlink="http://www.w3.org/1999/xlink" x="0px" y="0px"
	 viewBox="0 0 20.92 32.73" style="enable-background:new 0 0 20.92 32.73;" xml:space="preserve">
<style type="text/css">
	.st0{fill:#55B265;}
</style>
<g>
	<path class="st0" d="M20.82,27.68l-4.7-11.59V2.73c0-1.49-1.21-2.71-2.71-2.71H2.71C1.21,0.02,0,1.24,0,2.73v27.26
		c0,1.49,1.21,2.71,2.71,2.71h10.71c0.51,0,0.98-0.15,1.38-0.39l0,0.01l5.38-2.88c0,0,0,0,0,0l0,0v0c0.2-0.11,0.37-0.26,0.5-0.45
		C20.94,28.6,20.99,28.11,20.82,27.68z M2.78,28.79v-6.38l2.51,5.16L2.78,28.79z M17.46,26.81H8.02L2.78,16.04V2.81h10.55v13.55h0
		c0,0.17,0.03,0.35,0.1,0.52L17.46,26.81z"/>
	<path class="st0" d="M12.16,24.79c1.56-0.61,2.18-2.6,1.42-4.53s-2.57-2.96-4.13-2.34s-2.18,2.6-1.42,4.53S10.6,25.4,12.16,24.79z
		 M9.76,21.77c-0.4-1.01-0.12-1.93,0.38-2.12c0.5-0.2,1.33,0.29,1.72,1.3c0.4,1.01,0.12,1.93-0.38,2.12
		C10.98,23.26,10.15,22.77,9.76,21.77z"/>
	<path class="st0" d="M8.06,5.12c0.12,0,0.24,0.02,0.35,0.07c0.34,0.14,0.58,0.47,0.58,0.86l0,4.12c0,0.51-0.42,0.93-0.93,0.93
		c-0.51,0-0.93-0.42-0.93-0.93l0-4.12C7.14,5.53,7.55,5.12,8.06,5.12z"/>
</g>
</svg>
