<?xml version="1.0" encoding="utf-8"?>
<!-- Generator: Adobe Illustrator 25.1.0, SVG Export Plug-In . SVG Version: 6.00 Build 0)  -->
<svg version="1.1" id="Layer_1" xmlns="http://www.w3.org/2000/svg" xmlns:xlink="http://www.w3.org/1999/xlink" x="0px" y="0px"
	 viewBox="0 0 22.5 32.73" style="enable-background:new 0 0 22.5 32.73;" xml:space="preserve">
<style type="text/css">
	.st0{fill:#FFFFFF;}
</style>
<path class="st0" d="M21.25,12.21h-0.89v-3.1c0-5.02-4.09-9.11-9.11-9.11C6.23,0,2.14,4.09,2.14,9.11v3.1H1.25
	C0.56,12.21,0,12.77,0,13.46v18.01c0,0.69,0.56,1.25,1.25,1.25h20c0.69,0,1.25-0.56,1.25-1.25V13.46
	C22.5,12.77,21.94,12.21,21.25,12.21z M6.31,9.11c0-2.73,2.22-4.94,4.94-4.94s4.94,2.22,4.94,4.94v3.1H6.31V9.11z M12.56,24.46v1.66
	c0,0.72-0.59,1.31-1.31,1.31c-0.72,0-1.31-0.59-1.31-1.31v-1.66c-1.34-0.53-2.29-1.82-2.29-3.35c0-1.99,1.62-3.61,3.61-3.61
	s3.61,1.62,3.61,3.61C14.86,22.64,13.91,23.93,12.56,24.46z"/>
</svg>
