<?xml version="1.0" encoding="utf-8"?>
<!-- Generator: Adobe Illustrator 25.1.0, SVG Export Plug-In . SVG Version: 6.00 Build 0)  -->
<svg version="1.1" id="Layer_1" xmlns="http://www.w3.org/2000/svg" xmlns:xlink="http://www.w3.org/1999/xlink" x="0px" y="0px"
	 viewBox="0 0 26.51 32.73" style="enable-background:new 0 0 26.51 32.73;" xml:space="preserve">
<style type="text/css">
	.st0{fill:#FFFFFF;}
	.st1{opacity:0.66;fill:#FFFFFF;}
</style>
<g>
	<path class="st0" d="M17.11,16.13h-0.72v-2.51c0-4.07-3.31-7.37-7.37-7.37c-4.07,0-7.37,3.31-7.37,7.37v2.51H0.92
		c-0.56,0-1.01,0.46-1.01,1.01v14.58c0,0.56,0.46,1.01,1.01,1.01h16.19c0.56,0,1.01-0.46,1.01-1.01V17.15
		C18.12,16.59,17.67,16.13,17.11,16.13z M5.02,13.63c0-2.21,1.79-4,4-4s4,1.79,4,4v2.51h-8V13.63z M10.08,26.05v1.35
		c0,0.58-0.48,1.06-1.06,1.06c-0.58,0-1.06-0.48-1.06-1.06v-1.35c-1.09-0.43-1.86-1.48-1.86-2.71c0-1.61,1.31-2.92,2.92-2.92
		s2.92,1.31,2.92,2.92C11.94,24.57,11.17,25.62,10.08,26.05z"/>
	<g>
		<path class="st1" d="M8.97,23.33l0.06,0.02l-0.01-0.08C8.99,23.28,8.97,23.31,8.97,23.33z"/>
		<path class="st0" d="M25.5,9.87h-0.72V7.36c0-4.07-3.31-7.37-7.37-7.37c-2.69,0-5.03,1.45-6.32,3.6c1.16,0.24,2.24,0.68,3.22,1.28
			c0.73-0.91,1.84-1.51,3.1-1.51c2.21,0,4,1.79,4,4v2.51h-2.87c0.46,1.16,0.72,2.43,0.72,3.75v0.29c1.04,0.7,1.73,1.88,1.73,3.23
			v9.33h4.51c0.56,0,1.01-0.46,1.01-1.01V10.88C26.51,10.33,26.06,9.87,25.5,9.87z"/>
	</g>
</g>
</svg>
