<?xml version="1.0" encoding="utf-8"?>
<!-- Generator: Adobe Illustrator 26.0.3, SVG Export Plug-In . SVG Version: 6.00 Build 0)  -->
<svg version="1.1" id="Layer_1" xmlns="http://www.w3.org/2000/svg" xmlns:xlink="http://www.w3.org/1999/xlink" x="0px" y="0px"
	 viewBox="0 0 16 16" style="enable-background:new 0 0 16 16;" xml:space="preserve">
<style type="text/css">
	.st0{fill-rule:evenodd;clip-rule:evenodd;fill:#8A6EFF;}
</style>
<path class="st0" d="M4,5L4,5c0-2.2,1.8-4,4-4c2.2,0,4,1.8,4,4v0c0,0,0.1,0,0.1,0c0.3,0,0.6,0.1,0.8,0.2c0.4,0.2,0.7,0.5,0.9,0.9
	c0.1,0.2,0.2,0.5,0.2,0.8c0,0.3,0,0.8,0,1.3c0,0,0,0,0,0v3.6c0,0,0,0,0,0c0,0.6,0,1,0,1.3c0,0.3-0.1,0.6-0.2,0.8c0,0,0,0,0,0.1
	c-0.2,0.3-0.5,0.6-0.8,0.8c-0.2,0.1-0.5,0.2-0.8,0.2c-0.3,0-0.8,0-1.3,0c0,0,0,0,0,0H5.2c0,0,0,0,0,0c-0.6,0-1,0-1.3,0
	c-0.3,0-0.6-0.1-0.8-0.2c0,0,0,0-0.1,0c-0.3-0.2-0.6-0.5-0.8-0.8c-0.1-0.1-0.1-0.3-0.2-0.5c0-0.1,0-0.1,0-0.2c0,0,0-0.1,0-0.1
	c0,0,0,0,0,0c0-0.2,0-0.4,0-0.6c0-0.2,0-0.3,0-0.5c0-0.1,0-0.1,0-0.2c0,0,0,0,0,0V8.2c0-0.3,0-0.5,0-0.7c0-0.2,0-0.4,0-0.6
	c0,0,0-0.1,0-0.1c0-0.1,0-0.1,0-0.2c0-0.2,0.1-0.3,0.1-0.5c0,0,0,0,0-0.1c0.2-0.3,0.5-0.6,0.8-0.8c0,0,0.1,0,0.1,0
	C3.4,5.1,3.6,5.1,3.9,5C3.9,5,3.9,5,4,5C3.9,5,4,5,4,5z M11.9,6c-0.3,0-0.6,0-1.1,0H5.2C4.7,6,4.3,6,4.1,6c0,0,0,0,0,0C4,6,4,6,4,6
	c-0.1,0-0.2,0-0.3,0c-0.1,0-0.1,0-0.2,0.1C3.4,6.2,3.2,6.4,3.1,6.5C3.1,6.6,3,6.7,3,7c0,0.3,0,0.7,0,1.2v3.6c0,0.6,0,0.9,0,1.2
	c0,0.3,0.1,0.4,0.1,0.4c0.1,0.2,0.2,0.3,0.4,0.4c0,0,0.2,0.1,0.4,0.1c0.3,0,0.7,0,1.2,0h5.6c0.6,0,0.9,0,1.2,0
	c0.3,0,0.4-0.1,0.4-0.1c0.2-0.1,0.3-0.2,0.4-0.4c0,0,0.1-0.2,0.1-0.4c0-0.3,0-0.7,0-1.2V8.2c0-0.6,0-0.9,0-1.2
	c0-0.3-0.1-0.4-0.1-0.4c-0.1-0.2-0.2-0.3-0.4-0.4c0,0-0.1,0-0.2-0.1c-0.1,0-0.1,0-0.3,0C12,6,12,6,11.9,6C11.9,6,11.9,6,11.9,6z
	 M8.6,9.8C8.8,9.6,9,9.3,9,9c0-0.6-0.4-1-1-1S7,8.4,7,9c0,0.3,0.2,0.6,0.4,0.8c0,0,0.1,0,0.1,0.1l-0.4,1.7C7,11.8,7.2,12,7.4,12h1.2
	c0.2,0,0.3-0.2,0.3-0.4L8.5,9.9C8.5,9.9,8.5,9.8,8.6,9.8z M5,5h6c0-0.4-0.1-0.7-0.2-1C10.4,2.8,9.3,2,8,2S5.6,2.8,5.2,4
	C5.1,4.3,5,4.6,5,5z"/>
</svg>
