<?xml version="1.0" encoding="utf-8"?>
<!-- Generator: Adobe Illustrator 26.0.3, SVG Export Plug-In . SVG Version: 6.00 Build 0)  -->
<svg version="1.1" id="Layer_1" xmlns="http://www.w3.org/2000/svg" xmlns:xlink="http://www.w3.org/1999/xlink" x="0px" y="0px"
	 viewBox="0 0 16 16" style="enable-background:new 0 0 16 16;" xml:space="preserve">
<style type="text/css">
	.st0{fill-rule:evenodd;clip-rule:evenodd;fill:#8A6EFF;}
</style>
<path class="st0" d="M8.7,3.6c-0.2,0.2-0.2,0.5,0,0.7L11.9,8l-3.2,3.7c-0.2,0.2-0.2,0.5,0,0.7s0.5,0.2,0.7,0l3.4-3.9
	c0.2-0.3,0.2-0.7,0-0.9L9.4,3.7C9.3,3.5,8.9,3.4,8.7,3.6z M4.2,3.6C4,3.8,4,4.1,4.2,4.3L7.4,8l-3.2,3.7c-0.2,0.2-0.2,0.5,0,0.7
	c0.2,0.2,0.5,0.2,0.7,0l3.4-3.9c0.2-0.3,0.2-0.7,0-0.9L4.9,3.7C4.8,3.5,4.4,3.4,4.2,3.6z"/>
</svg>
