<?xml version="1.0" encoding="utf-8"?>
<!-- Generator: Adobe Illustrator 26.0.3, SVG Export Plug-In . SVG Version: 6.00 Build 0)  -->
<svg version="1.1" id="Layer_1" xmlns="http://www.w3.org/2000/svg" xmlns:xlink="http://www.w3.org/1999/xlink" x="0px" y="0px"
	 viewBox="0 0 16 16" style="enable-background:new 0 0 16 16;" xml:space="preserve">
<style type="text/css">
	.st0{fill:#FFFFFF;filter:url(#Adobe_OpacityMaskFilter);}
	.st1{fill-rule:evenodd;clip-rule:evenodd;fill:#FFFFFF;}
	
		.st2{mask:url(#path-1-inside-1_3680_402210_00000038372409496413717570000006346179298990798985_);fill:none;stroke:#5B576B;stroke-width:2;}
	.st3{fill:#FFFFFF;filter:url(#Adobe_OpacityMaskFilter_00000176745088733525304920000004077727601704053144_);}
	
		.st4{mask:url(#path-1-inside-1_3680_402210_00000074403052801888727140000012583038439033293241_);fill:none;stroke:#5B576B;stroke-width:2;}
</style>
<defs>
	<filter id="Adobe_OpacityMaskFilter" filterUnits="userSpaceOnUse" x="7.8" y="8.5" width="3.5" height="5">
		<feColorMatrix  type="matrix" values="1 0 0 0 0  0 1 0 0 0  0 0 1 0 0  0 0 0 1 0"/>
	</filter>
</defs>
<mask maskUnits="userSpaceOnUse" x="7.8" y="8.5" width="3.5" height="5" id="path-1-inside-1_3680_402210_00000038372409496413717570000006346179298990798985_">
	<path class="st0" d="M10.2,10.2c0,0.3-0.2,0.5-0.4,0.7l0.3,1.3c0,0.1-0.1,0.3-0.2,0.3H9c-0.1,0-0.3-0.1-0.2-0.3l0.3-1.3
		c-0.2-0.1-0.4-0.4-0.4-0.7c0-0.4,0.3-0.8,0.8-0.8S10.2,9.8,10.2,10.2z"/>
	<path class="st1" d="M3.5,4L3.5,4C3.4,4.1,3.2,4.2,3.1,4.2C2.7,4.4,2.4,4.7,2.2,5.1C2.1,5.3,2,5.6,2,5.9c0,0.3,0,0.6,0,1v3.2
		c0,0.4,0,0.7,0,1c0,0.3,0.1,0.5,0.2,0.8c0.2,0.4,0.5,0.7,0.9,0.9C3.3,12.9,3.6,13,3.9,13c0.3,0,0.6,0,1,0H5c0,0.6,0,0.9,0.2,1.2
		c0.1,0.3,0.4,0.5,0.7,0.7C6.1,15,6.6,15,7.4,15h4.2c0.8,0,1.3,0,1.6-0.2c0.3-0.1,0.5-0.4,0.7-0.7c0.2-0.3,0.2-0.7,0.2-1.6V9.4
		c0-0.8,0-1.3-0.2-1.6c-0.1-0.3-0.4-0.5-0.7-0.7C13,7.1,12.8,7,12.5,7v0c0-1.7-1.3-3-3-3c0-1.7-1.3-3-3-3S3.5,2.3,3.5,4z M4.5,4h4
		c0-1.1-0.9-2-2-2S4.5,2.9,4.5,4z M4,5c0.2,0,0.5,0,0.9,0h2.4C6.8,5.5,6.5,6.2,6.5,7v0C6.2,7,6,7.1,5.8,7.2C5.5,7.3,5.3,7.5,5.2,7.8
		C5,8.1,5,8.6,5,9.4V12H4.9c-0.4,0-0.7,0-0.9,0c-0.2,0-0.3-0.1-0.4-0.1c-0.2-0.1-0.3-0.2-0.4-0.4C3.1,11.4,3,11.3,3,11
		c0-0.2,0-0.5,0-0.9V6.9C3,6.5,3,6.2,3,6c0-0.2,0.1-0.3,0.1-0.4c0.1-0.2,0.2-0.3,0.4-0.4C3.6,5.1,3.7,5,4,5z M7.5,7c0-1.1,0.9-2,2-2
		c1.1,0,2,0.9,2,2H7.5z M11.6,8H7.4C7,8,6.7,8,6.5,8C6.4,8,6.3,8,6.3,8c0,0,0,0,0,0c0,0,0,0,0,0c-0.1,0-0.2,0.1-0.2,0.2c0,0,0,0,0,0
		c0,0,0,0,0,0c0,0,0,0.1,0,0.2C6,8.7,6,9,6,9.4v3.2c0,0.4,0,0.7,0,0.9c0,0.1,0,0.1,0,0.2c0,0,0,0,0,0c0,0,0,0,0,0
		c0,0.1,0.1,0.2,0.2,0.2c0,0,0,0,0,0c0,0,0,0,0,0c0,0,0.1,0,0.2,0c0.2,0,0.5,0,0.9,0h4.2c0.4,0,0.7,0,0.9,0c0.1,0,0.1,0,0.2,0
		c0,0,0,0,0,0l0,0c0,0,0,0,0,0c0.1,0,0.2-0.1,0.2-0.2l0,0l0,0c0,0,0,0,0,0c0,0,0-0.1,0-0.2c0-0.2,0-0.5,0-0.9V9.4c0-0.4,0-0.7,0-0.9
		c0-0.1,0-0.1,0-0.2c0,0,0,0,0,0l0,0l0,0c0-0.1-0.1-0.2-0.2-0.2c0,0,0,0,0,0c0,0,0,0,0,0c0,0-0.1,0-0.2,0C12.3,8,12,8,11.6,8z"/>
</mask>
<path class="st2" d="M10.2,10.2c0,0.3-0.2,0.5-0.4,0.7l0.3,1.3c0,0.1-0.1,0.3-0.2,0.3H9c-0.1,0-0.3-0.1-0.2-0.3l0.3-1.3
	c-0.2-0.1-0.4-0.4-0.4-0.7c0-0.4,0.3-0.8,0.8-0.8S10.2,9.8,10.2,10.2z"/>
<defs>
	
		<filter id="Adobe_OpacityMaskFilter_00000080168756024883912900000003230780335919540881_" filterUnits="userSpaceOnUse" x="1" y="0" width="14" height="16">
		<feColorMatrix  type="matrix" values="1 0 0 0 0  0 1 0 0 0  0 0 1 0 0  0 0 0 1 0"/>
	</filter>
</defs>
<mask maskUnits="userSpaceOnUse" x="1" y="0" width="14" height="16" id="path-1-inside-1_3680_402210_00000074403052801888727140000012583038439033293241_">
	<path style="fill:#FFFFFF;filter:url(#Adobe_OpacityMaskFilter_00000080168756024883912900000003230780335919540881_);" d="
		M10.2,10.2c0,0.3-0.2,0.5-0.4,0.7l0.3,1.3c0,0.1-0.1,0.3-0.2,0.3H9c-0.1,0-0.3-0.1-0.2-0.3l0.3-1.3c-0.2-0.1-0.4-0.4-0.4-0.7
		c0-0.4,0.3-0.8,0.8-0.8S10.2,9.8,10.2,10.2z"/>
	<path class="st1" d="M3.5,4L3.5,4C3.4,4.1,3.2,4.2,3.1,4.2C2.7,4.4,2.4,4.7,2.2,5.1C2.1,5.3,2,5.6,2,5.9c0,0.3,0,0.6,0,1v3.2
		c0,0.4,0,0.7,0,1c0,0.3,0.1,0.5,0.2,0.8c0.2,0.4,0.5,0.7,0.9,0.9C3.3,12.9,3.6,13,3.9,13c0.3,0,0.6,0,1,0H5c0,0.6,0,0.9,0.2,1.2
		c0.1,0.3,0.4,0.5,0.7,0.7C6.1,15,6.6,15,7.4,15h4.2c0.8,0,1.3,0,1.6-0.2c0.3-0.1,0.5-0.4,0.7-0.7c0.2-0.3,0.2-0.7,0.2-1.6V9.4
		c0-0.8,0-1.3-0.2-1.6c-0.1-0.3-0.4-0.5-0.7-0.7C13,7.1,12.8,7,12.5,7v0c0-1.7-1.3-3-3-3c0-1.7-1.3-3-3-3S3.5,2.3,3.5,4z M4.5,4h4
		c0-1.1-0.9-2-2-2S4.5,2.9,4.5,4z M4,5c0.2,0,0.5,0,0.9,0h2.4C6.8,5.5,6.5,6.2,6.5,7v0C6.2,7,6,7.1,5.8,7.2C5.5,7.3,5.3,7.5,5.2,7.8
		C5,8.1,5,8.6,5,9.4V12H4.9c-0.4,0-0.7,0-0.9,0c-0.2,0-0.3-0.1-0.4-0.1c-0.2-0.1-0.3-0.2-0.4-0.4C3.1,11.4,3,11.3,3,11
		c0-0.2,0-0.5,0-0.9V6.9C3,6.5,3,6.2,3,6c0-0.2,0.1-0.3,0.1-0.4c0.1-0.2,0.2-0.3,0.4-0.4C3.6,5.1,3.7,5,4,5z M7.5,7c0-1.1,0.9-2,2-2
		c1.1,0,2,0.9,2,2H7.5z M11.6,8H7.4C7,8,6.7,8,6.5,8C6.4,8,6.3,8,6.3,8c0,0,0,0,0,0c0,0,0,0,0,0c-0.1,0-0.2,0.1-0.2,0.2c0,0,0,0,0,0
		c0,0,0,0,0,0c0,0,0,0.1,0,0.2C6,8.7,6,9,6,9.4v3.2c0,0.4,0,0.7,0,0.9c0,0.1,0,0.1,0,0.2c0,0,0,0,0,0c0,0,0,0,0,0
		c0,0.1,0.1,0.2,0.2,0.2c0,0,0,0,0,0c0,0,0,0,0,0c0,0,0.1,0,0.2,0c0.2,0,0.5,0,0.9,0h4.2c0.4,0,0.7,0,0.9,0c0.1,0,0.1,0,0.2,0
		c0,0,0,0,0,0l0,0c0,0,0,0,0,0c0.1,0,0.2-0.1,0.2-0.2l0,0l0,0c0,0,0,0,0,0c0,0,0-0.1,0-0.2c0-0.2,0-0.5,0-0.9V9.4c0-0.4,0-0.7,0-0.9
		c0-0.1,0-0.1,0-0.2c0,0,0,0,0,0l0,0l0,0c0-0.1-0.1-0.2-0.2-0.2c0,0,0,0,0,0c0,0,0,0,0,0c0,0-0.1,0-0.2,0C12.3,8,12,8,11.6,8z"/>
</mask>
<path class="st4" d="M3.5,4L3.5,4C3.4,4.1,3.2,4.2,3.1,4.2C2.7,4.4,2.4,4.7,2.2,5.1C2.1,5.3,2,5.6,2,5.9c0,0.3,0,0.6,0,1v3.2
	c0,0.4,0,0.7,0,1c0,0.3,0.1,0.5,0.2,0.8c0.2,0.4,0.5,0.7,0.9,0.9C3.3,12.9,3.6,13,3.9,13c0.3,0,0.6,0,1,0H5c0,0.6,0,0.9,0.2,1.2
	c0.1,0.3,0.4,0.5,0.7,0.7C6.1,15,6.6,15,7.4,15h4.2c0.8,0,1.3,0,1.6-0.2c0.3-0.1,0.5-0.4,0.7-0.7c0.2-0.3,0.2-0.7,0.2-1.6V9.4
	c0-0.8,0-1.3-0.2-1.6c-0.1-0.3-0.4-0.5-0.7-0.7C13,7.1,12.8,7,12.5,7v0c0-1.7-1.3-3-3-3c0-1.7-1.3-3-3-3S3.5,2.3,3.5,4z M4.5,4h4
	c0-1.1-0.9-2-2-2S4.5,2.9,4.5,4z M4,5c0.2,0,0.5,0,0.9,0h2.4C6.8,5.5,6.5,6.2,6.5,7v0C6.2,7,6,7.1,5.8,7.2C5.5,7.3,5.3,7.5,5.2,7.8
	C5,8.1,5,8.6,5,9.4V12H4.9c-0.4,0-0.7,0-0.9,0c-0.2,0-0.3-0.1-0.4-0.1c-0.2-0.1-0.3-0.2-0.4-0.4C3.1,11.4,3,11.3,3,11
	c0-0.2,0-0.5,0-0.9V6.9C3,6.5,3,6.2,3,6c0-0.2,0.1-0.3,0.1-0.4c0.1-0.2,0.2-0.3,0.4-0.4C3.6,5.1,3.7,5,4,5z M7.5,7c0-1.1,0.9-2,2-2
	c1.1,0,2,0.9,2,2H7.5z M11.6,8H7.4C7,8,6.7,8,6.5,8C6.4,8,6.3,8,6.3,8c0,0,0,0,0,0c0,0,0,0,0,0c-0.1,0-0.2,0.1-0.2,0.2c0,0,0,0,0,0
	c0,0,0,0,0,0c0,0,0,0.1,0,0.2C6,8.7,6,9,6,9.4v3.2c0,0.4,0,0.7,0,0.9c0,0.1,0,0.1,0,0.2c0,0,0,0,0,0c0,0,0,0,0,0
	c0,0.1,0.1,0.2,0.2,0.2c0,0,0,0,0,0c0,0,0,0,0,0c0,0,0.1,0,0.2,0c0.2,0,0.5,0,0.9,0h4.2c0.4,0,0.7,0,0.9,0c0.1,0,0.1,0,0.2,0
	c0,0,0,0,0,0l0,0c0,0,0,0,0,0c0.1,0,0.2-0.1,0.2-0.2l0,0l0,0c0,0,0,0,0,0c0,0,0-0.1,0-0.2c0-0.2,0-0.5,0-0.9V9.4c0-0.4,0-0.7,0-0.9
	c0-0.1,0-0.1,0-0.2c0,0,0,0,0,0l0,0l0,0c0-0.1-0.1-0.2-0.2-0.2c0,0,0,0,0,0c0,0,0,0,0,0c0,0-0.1,0-0.2,0C12.3,8,12,8,11.6,8z"/>
</svg>
