<?xml version="1.0" encoding="utf-8"?>
<!-- Generator: Adobe Illustrator 26.0.3, SVG Export Plug-In . SVG Version: 6.00 Build 0)  -->
<svg version="1.1" id="Layer_1" xmlns="http://www.w3.org/2000/svg" xmlns:xlink="http://www.w3.org/1999/xlink" x="0px" y="0px"
	 viewBox="0 0 32 32" style="enable-background:new 0 0 32 32;" xml:space="preserve">
<style type="text/css">
	.st0{fill-rule:evenodd;clip-rule:evenodd;fill:#343140;}
	.st1{fill-rule:evenodd;clip-rule:evenodd;fill:#FFFFFF;}
</style>
<path class="st0" d="M16,30c7.7,0,14-6.3,14-14c0-7.7-6.3-14-14-14C8.3,2,2,8.3,2,16C2,23.7,8.3,30,16,30z M16,32
	c8.8,0,16-7.2,16-16c0-8.8-7.2-16-16-16C7.2,0,0,7.2,0,16C0,24.8,7.2,32,16,32z"/>
<path class="st1" d="M22.4,13.6c-0.2-0.2-0.6-0.3-0.8-0.1L16,18.3l-5.6-4.7c-0.2-0.2-0.6-0.2-0.8,0.1c-0.2,0.2-0.2,0.6,0.1,0.8
	l5.7,4.8c0.4,0.3,0.9,0.3,1.2,0l5.7-4.8C22.6,14.2,22.6,13.9,22.4,13.6z"/>
</svg>
