<?xml version="1.0" encoding="utf-8"?>
<!-- Generator: Adobe Illustrator 26.0.3, SVG Export Plug-In . SVG Version: 6.00 Build 0)  -->
<svg version="1.1" id="Layer_1" xmlns="http://www.w3.org/2000/svg" xmlns:xlink="http://www.w3.org/1999/xlink" x="0px" y="0px"
	 viewBox="0 0 16 16" style="enable-background:new 0 0 16 16;" xml:space="preserve">
<style type="text/css">
	.st0{fill-rule:evenodd;clip-rule:evenodd;fill:#FFFFFF;}
</style>
<path class="st0" d="M8,15c3.9,0,7-3.1,7-7c0-3.9-3.1-7-7-7C4.1,1,1,4.1,1,8C1,11.9,4.1,15,8,15z M9.5,11c0,0.3-0.2,0.5-0.5,0.5H8H7
	c-0.3,0-0.5-0.2-0.5-0.5s0.2-0.5,0.5-0.5h0.5V7H7C6.7,7,6.5,6.8,6.5,6.5S6.7,6,7,6h1c0.3,0,0.5,0.2,0.5,0.5v4H9
	C9.3,10.5,9.5,10.7,9.5,11z M7.8,5.2c0.4,0,0.8-0.3,0.8-0.8S8.2,3.8,7.8,3.8C7.3,3.8,7,4.1,7,4.5S7.3,5.2,7.8,5.2z"/>
</svg>
