<?xml version="1.0" encoding="utf-8"?>
<!-- Generator: Adobe Illustrator 25.2.0, SVG Export Plug-In . SVG Version: 6.00 Build 0)  -->
<svg version="1.1" id="Layer_1" xmlns="http://www.w3.org/2000/svg" xmlns:xlink="http://www.w3.org/1999/xlink" x="0px" y="0px"
	 viewBox="0 0 16 16" style="enable-background:new 0 0 16 16;" xml:space="preserve">
<style type="text/css">
	.st0{fill:#9CA0AA;}
</style>
<path class="st0" d="M16,3.1l-2.7,2.7l-3.1,0V2.7L12.9,0l-2.7,0C9.3,0,8.5,0.3,7.8,1L7.3,1.5C6.4,2.4,5.9,3.7,5.9,5v2.5l-5.3,5.3
	c-0.7,0.7-0.7,1.9,0,2.6c0.7,0.7,1.9,0.7,2.6,0l5.3-5.3H11c1.3,0,2.6-0.5,3.5-1.5L15,8.1c0.6-0.6,1-1.5,1-2.3L16,3.1z"/>
</svg>
