<?xml version="1.0" encoding="utf-8"?>
<!-- Generator: Adobe Illustrator 25.1.0, SVG Export Plug-In . SVG Version: 6.00 Build 0)  -->
<svg version="1.1" id="Layer_1" xmlns="http://www.w3.org/2000/svg" xmlns:xlink="http://www.w3.org/1999/xlink" x="0px" y="0px"
	 viewBox="0 0 20 20" style="enable-background:new 0 0 20 20;" xml:space="preserve">
<style type="text/css">
	.st0{fill:#8E8E93;}
</style>
<path class="st0" d="M20,3.88l-3.4,3.4l-3.88-0.01V3.4l3.4-3.4h-3.37c-1.11,0-2.15,0.42-2.94,1.22L9.15,1.88
	c-1.17,1.17-1.82,2.75-1.82,4.4v3.11l-6.66,6.66c-0.91,0.91-0.91,2.37,0,3.28c0.91,0.91,2.37,0.91,3.28,0l6.66-6.66h3.1
	c1.64,0,3.24-0.66,4.39-1.82l0.66-0.66c0.78-0.78,1.22-1.83,1.2-2.93L20,3.88z"/>
</svg>
