<?xml version="1.0" encoding="utf-8"?>
<!-- Generator: Adobe Illustrator 25.2.0, SVG Export Plug-In . SVG Version: 6.00 Build 0)  -->
<svg version="1.1" id="Layer_1" xmlns="http://www.w3.org/2000/svg" xmlns:xlink="http://www.w3.org/1999/xlink" x="0px" y="0px"
	 viewBox="0 0 16 16" style="enable-background:new 0 0 16 16;" xml:space="preserve">
<style type="text/css">
	.st0{fill:#727680;}
	.st1{fill-rule:evenodd;clip-rule:evenodd;fill:#727680;}
</style>
<path class="st0" d="M5.7,6.5c0.4,0,0.7-0.3,0.7-0.7C6.5,5.3,6.1,5,5.7,5C5.3,5,5,5.3,5,5.7C5,6.1,5.3,6.5,5.7,6.5z"/>
<path class="st0" d="M10.3,11c0.4,0,0.7-0.3,0.7-0.7c0-0.4-0.3-0.7-0.7-0.7c-0.4,0-0.7,0.3-0.7,0.7C9.5,10.7,9.9,11,10.3,11z"/>
<path class="st1" d="M8,16c4.4,0,8-3.6,8-8c0-4.4-3.6-8-8-8C3.6,0,0,3.6,0,8C0,12.4,3.6,16,8,16z M5.7,12.1L11,4.4l-0.8-0.6
	l-5.3,7.7L5.7,12.1z M5.7,7.5c1,0,1.7-0.8,1.7-1.7c0-1-0.8-1.7-1.7-1.7C4.8,4,4,4.8,4,5.7C4,6.7,4.8,7.5,5.7,7.5z M10.3,12
	c1,0,1.7-0.8,1.7-1.7s-0.8-1.7-1.7-1.7c-1,0-1.7,0.8-1.7,1.7S9.3,12,10.3,12z"/>
</svg>
