<?xml version="1.0" encoding="utf-8"?>
<!-- Generator: Adobe Illustrator 26.0.3, SVG Export Plug-In . SVG Version: 6.00 Build 0)  -->
<svg version="1.1" id="Layer_1" xmlns="http://www.w3.org/2000/svg" xmlns:xlink="http://www.w3.org/1999/xlink" x="0px" y="0px"
	 viewBox="0 0 16 16" style="enable-background:new 0 0 16 16;" xml:space="preserve">
<style type="text/css">
	.st0{fill-rule:evenodd;clip-rule:evenodd;fill:#A7A4B5;}
</style>
<path class="st0" d="M3,2h10c0.6,0,1,0.4,1,1v2.5c0,0.6-0.4,1-1,1H3c-0.6,0-1-0.4-1-1V3C2,2.4,2.4,2,3,2z M1,3c0-1.1,0.9-2,2-2h10
	c1.1,0,2,0.9,2,2v2.5c0,1.1-0.9,2-2,2H3c-1.1,0-2-0.9-2-2V3z M3,9.5h10c0.6,0,1,0.4,1,1V13c0,0.6-0.4,1-1,1H3c-0.6,0-1-0.4-1-1v-2.5
	C2,9.9,2.4,9.5,3,9.5z M1,10.5c0-1.1,0.9-2,2-2h10c1.1,0,2,0.9,2,2V13c0,1.1-0.9,2-2,2H3c-1.1,0-2-0.9-2-2V10.5z M13,4.5
	C13,4.8,12.8,5,12.5,5S12,4.8,12,4.5S12.2,4,12.5,4S13,4.2,13,4.5z M12.5,12.5c0.3,0,0.5-0.2,0.5-0.5s-0.2-0.5-0.5-0.5
	S12,11.7,12,12S12.2,12.5,12.5,12.5z M11,4.5C11,4.8,10.8,5,10.5,5S10,4.8,10,4.5S10.2,4,10.5,4S11,4.2,11,4.5z M10.5,12.5
	c0.3,0,0.5-0.2,0.5-0.5s-0.2-0.5-0.5-0.5S10,11.7,10,12S10.2,12.5,10.5,12.5z"/>
</svg>
