<?xml version="1.0" encoding="utf-8"?>
<!-- Generator: Adobe Illustrator 25.2.0, SVG Export Plug-In . SVG Version: 6.00 Build 0)  -->
<svg version="1.1" id="Layer_1" xmlns="http://www.w3.org/2000/svg" xmlns:xlink="http://www.w3.org/1999/xlink" x="0px" y="0px"
	 viewBox="0 0 16 16" style="enable-background:new 0 0 16 16;" xml:space="preserve">
<style type="text/css">
	.st0{fill-rule:evenodd;clip-rule:evenodd;fill:#727680;}
</style>
<path class="st0" d="M8,16c4.4,0,8-3.6,8-8c0-4.4-3.6-8-8-8C3.6,0,0,3.6,0,8C0,12.4,3.6,16,8,16z M4.3,7.5H2C2.2,4.9,3.9,2.7,6.3,2
	C6.2,2.1,6.1,2.2,6,2.3C5.2,3.4,4.4,5,4.3,7.5z M6,13.7c0.1,0.1,0.2,0.2,0.3,0.3C3.9,13.3,2.2,11.1,2,8.5h2.3
	C4.4,11,5.2,12.6,6,13.7z M5.2,8.5c0.1,2.3,0.8,3.7,1.5,4.6c0.3,0.4,0.6,0.6,0.8,0.8V8.5H5.2z M5.2,7.5h2.3V2.1
	C7.3,2.3,7,2.6,6.7,2.9C6,3.8,5.3,5.2,5.2,7.5z M8.5,8.5v5.4c0.2-0.2,0.5-0.5,0.8-0.8c0.7-0.9,1.4-2.3,1.5-4.6H8.5z M8.5,7.5h2.3
	C10.7,5.2,10,3.8,9.3,2.9C9,2.6,8.7,2.3,8.5,2.1V7.5z M11.7,8.5c-0.1,2.5-0.9,4.2-1.7,5.2l0,0.1l0,0c0,0,0,0-0.1,0.1
	c0,0.1-0.1,0.1-0.1,0.1c2.3-0.7,4.1-2.9,4.3-5.5H11.7z M9.7,2c2.3,0.7,4.1,2.9,4.3,5.5h-2.3C11.6,5,10.8,3.4,10,2.3
	C9.9,2.2,9.8,2.1,9.7,2z"/>
</svg>
