<?xml version="1.0" encoding="utf-8"?>
<!-- Generator: Adobe Illustrator 25.2.1, SVG Export Plug-In . SVG Version: 6.00 Build 0)  -->
<svg version="1.1" id="Layer_1" xmlns="http://www.w3.org/2000/svg" xmlns:xlink="http://www.w3.org/1999/xlink" x="0px" y="0px"
	 viewBox="0 0 16 16" style="enable-background:new 0 0 16 16;" xml:space="preserve">
<style type="text/css">
	.st0{fill:#4DA358;}
	.st1{fill-rule:evenodd;clip-rule:evenodd;fill:#4DA358;}
</style>
<path class="st0" d="M6,5L3.1,5.8C2.9,5.5,2.5,5.3,2,5.2c-0.4-0.1-0.9,0-1.3,0.2C0.6,5.5,0.4,5.7,0.3,5.9C0.2,6,0.1,6.2,0,6.4
	C0,6.6,0,6.8,0,7c0,0.2,0.1,0.4,0.3,0.6c0,0,0,0,0,0C0.5,7.8,0.7,8,0.9,8.1c0.3,0.1,0.5,0.2,0.8,0.2c0.2,0,0.4,0,0.5-0.1l4.9,5.6
	C7,14.2,7,14.6,7.1,15c0.2,0.4,0.5,0.7,0.9,0.9l0,0C8.5,16,9,16,9.4,15.9c0.4-0.2,0.8-0.5,0.9-0.8c0.1-0.3,0.2-0.6,0.1-1
	c-0.1-0.3-0.3-0.6-0.6-0.8l1.1-3.3c-0.4,0-0.8-0.1-1.2-0.3l-1,3.1h0l0,0c-0.3,0-0.5,0.1-0.8,0.2L3.2,7.5c0.1-0.2,0.2-0.4,0.2-0.6
	L6.2,6C6.1,5.7,6.1,5.4,6,5z"/>
<path class="st1" d="M11.5,9C14,9,16,7,16,4.5S14,0,11.5,0C9,0,7,2,7,4.5S9,9,11.5,9z M10.7,6.7L14.4,3l-0.7-0.7l-3,3L9.4,3.9
	L8.6,4.6L10.7,6.7z"/>
</svg>
