<?xml version="1.0" encoding="utf-8"?>
<!-- Generator: Adobe Illustrator 26.0.3, SVG Export Plug-In . SVG Version: 6.00 Build 0)  -->
<svg version="1.1" id="Layer_1" xmlns="http://www.w3.org/2000/svg" xmlns:xlink="http://www.w3.org/1999/xlink" x="0px" y="0px"
	 viewBox="0 0 16 16" style="enable-background:new 0 0 16 16;" xml:space="preserve">
<style type="text/css">
	.st0{fill-rule:evenodd;clip-rule:evenodd;fill:#5B576B;}
</style>
<path class="st0" d="M1,2c0-0.6,0.4-1,1-1h5.5c0.6,0,1,0.4,1,1v5.4l3.2,5.1c0.3,0.4,0,0.9-0.4,1l-2.5,1.4C8.7,15,8.6,15,8.4,15H2
	c0,0,0,0,0,0H1.7C1.3,15,1,14.7,1,14.3V7.5h0c0,0,0-0.1,0-0.1V2z M2,9.5v4.5l1.9-1.1L2,9.5z M4.8,13.5L3.9,14h4.5l0.9-0.5L4.8,13.5
	L4.8,13.5z M10.6,12.5L7.7,7.9C7.6,7.7,7.5,7.5,7.5,7.4V2H2v5.4l2.8,5.1H10.6z M5,4c0.3,0,0.5,0.2,0.5,0.5V6c0,0.3-0.2,0.5-0.5,0.5
	S4.5,6.3,4.5,6V4.5C4.5,4.2,4.7,4,5,4z M6.3,10c-0.1,0-0.1,0-0.2,0S6,10,6,10.1c0,0.1,0,0.3,0.1,0.4c0.1,0.2,0.2,0.3,0.3,0.3
	c0.1,0,0.1,0,0.2,0c0,0,0.1,0,0.1-0.1c0-0.1,0-0.3-0.1-0.4C6.5,10.1,6.4,10,6.3,10z M6.7,9C7,9.2,7.2,9.4,7.4,9.8
	c0.2,0.3,0.3,0.7,0.2,1c0,0.3-0.2,0.7-0.6,0.9s-0.7,0.2-1.1,0c-0.3-0.1-0.6-0.4-0.8-0.7C5.1,10.7,5,10.3,5,10c0-0.3,0.2-0.7,0.6-0.9
	C5.9,8.9,6.3,8.9,6.7,9z M10,3.8C10,3.4,10.4,3,10.8,3h0.1V2.8c0-0.9,0.7-1.6,1.6-1.6s1.6,0.7,1.6,1.6V3h0.1C14.6,3,15,3.4,15,3.8
	v2.4C15,6.6,14.6,7,14.2,7h-3.4C10.4,7,10,6.6,10,6.2V3.8z M13.4,3V2.8c0-0.5-0.4-0.9-0.9-0.9s-0.9,0.4-0.9,0.9V3H13.4z"/>
</svg>
