<?xml version="1.0" encoding="utf-8"?>
<!-- Generator: Adobe Illustrator 26.0.3, SVG Export Plug-In . SVG Version: 6.00 Build 0)  -->
<svg version="1.1" id="Layer_1" xmlns="http://www.w3.org/2000/svg" xmlns:xlink="http://www.w3.org/1999/xlink" x="0px" y="0px"
	 viewBox="0 0 16 16" style="enable-background:new 0 0 16 16;" xml:space="preserve">
<style type="text/css">
	.st0{fill-rule:evenodd;clip-rule:evenodd;fill:#8A6EFF;}
</style>
<path class="st0" d="M5,1C5,1,5,1,5,1H4.7C4.3,1,4,1.3,4,1.7v6.8h0c0,0,0,0.1,0,0.1V14c0,0.6,0.4,1,1,1h5.5c0.6,0,1-0.4,1-1V8.6
	l3.2-5.1c0.3-0.4,0-0.9-0.4-1l-2.5-1.4C11.7,1,11.6,1,11.4,1H5z M12.3,2.5L11.4,2H6.9l0.9,0.5c0,0,0,0,0,0H12.3z M6.9,3.1L5,2.1v4.5
	L6.9,3.1z M13.6,3.5H7.8L5,8.6 M13.6,3.5l-2.9,4.6c-0.1,0.2-0.2,0.3-0.2,0.5V14H5V8.6 M5,8.6L4.8,8.5L5,8.6z M10.3,5.1
	c0.2,0.2,0.3,0.5,0.1,0.7l-1,1.5C9.3,7.5,9,7.6,8.7,7.4C8.5,7.3,8.4,7,8.6,6.7l1-1.5C9.7,5,10,4.9,10.3,5.1z M8,11
	c-0.3,0-0.5,0.2-0.5,0.5C7.5,11.8,7.7,12,8,12s0.5-0.2,0.5-0.5C8.5,11.2,8.3,11,8,11z M6.5,11.5C6.5,10.7,7.2,10,8,10
	s1.5,0.7,1.5,1.5C9.5,12.3,8.8,13,8,13S6.5,12.3,6.5,11.5z"/>
</svg>
