<?xml version="1.0" encoding="utf-8"?>
<!-- Generator: Adobe Illustrator 26.0.3, SVG Export Plug-In . SVG Version: 6.00 Build 0)  -->
<svg version="1.1" id="Layer_1" xmlns="http://www.w3.org/2000/svg" xmlns:xlink="http://www.w3.org/1999/xlink" x="0px" y="0px"
	 viewBox="0 0 16 16" style="enable-background:new 0 0 16 16;" xml:space="preserve">
<style type="text/css">
	.st0{fill-rule:evenodd;clip-rule:evenodd;fill:#5B576B;}
</style>
<path class="st0" d="M4,2c0-0.6,0.4-1,1-1h5.5c0.6,0,1,0.4,1,1v5.4l3.2,5.1c0.3,0.4,0,0.9-0.4,1l-2.5,1.4C11.7,15,11.6,15,11.4,15H5
	c0,0,0,0,0,0H4.7C4.3,15,4,14.7,4,14.3V7.5h0c0,0,0-0.1,0-0.1V2z M5,9.5v4.5l1.9-1.1L5,9.5z M7.8,13.5L6.9,14h4.5l0.9-0.5L7.8,13.5
	C7.8,13.5,7.8,13.5,7.8,13.5z M13.6,12.5l-2.9-4.6c-0.1-0.2-0.2-0.3-0.2-0.5V2H5v5.4l2.8,5.1H13.6z M8,4c0.3,0,0.5,0.2,0.5,0.5V6
	c0,0.3-0.2,0.5-0.5,0.5S7.5,6.3,7.5,6V4.5C7.5,4.2,7.7,4,8,4z M9.3,10c-0.1,0-0.1,0-0.2,0c0,0-0.1,0-0.1,0.1c0,0.1,0,0.3,0.1,0.4
	c0.1,0.2,0.2,0.3,0.3,0.3c0.1,0,0.1,0,0.2,0c0,0,0.1,0,0.1-0.1c0-0.1,0-0.3-0.1-0.4C9.5,10.1,9.4,10,9.3,10z M9.7,9
	c0.3,0.1,0.6,0.4,0.8,0.7c0.2,0.3,0.3,0.7,0.2,1c0,0.3-0.2,0.7-0.6,0.9c-0.3,0.2-0.7,0.2-1.1,0c-0.3-0.1-0.6-0.4-0.8-0.7
	C8.1,10.7,8,10.3,8,10c0-0.3,0.2-0.7,0.6-0.9C8.9,8.9,9.3,8.9,9.7,9z"/>
</svg>
