<?xml version="1.0" encoding="utf-8"?>
<!-- Generator: Adobe Illustrator 25.1.0, SVG Export Plug-In . SVG Version: 6.00 Build 0)  -->
<svg version="1.1" id="Layer_1" xmlns="http://www.w3.org/2000/svg" xmlns:xlink="http://www.w3.org/1999/xlink" x="0px" y="0px"
	 viewBox="0 0 20.92 32.73" style="enable-background:new 0 0 20.92 32.73;" xml:space="preserve">
<style type="text/css">
	.st0{fill:#FFFFFF;}
</style>
<g>
	<path class="st0" d="M20.68,3.74c-0.13-0.19-0.3-0.34-0.5-0.45v0l0,0c0,0,0,0,0,0L14.8,0.41l0,0.01c-0.41-0.24-0.88-0.39-1.38-0.39
		H2.71C1.21,0.02,0,1.24,0,2.73v27.26c0,1.49,1.21,2.71,2.71,2.71h10.71c1.49,0,2.71-1.21,2.71-2.71V16.63l4.7-11.59
		C20.99,4.61,20.94,4.13,20.68,3.74z M5.29,5.16l-2.51,5.16V3.93L5.29,5.16z M13.44,15.84c-0.07,0.17-0.1,0.35-0.1,0.52h0v13.55
		H2.78V16.68L8.02,5.91h9.45L13.44,15.84z"/>
	<path class="st0" d="M10.24,13.56c0.11,0.05,0.23,0.07,0.35,0.07c0.37,0,0.71-0.22,0.86-0.58L13,9.23
		c0.19-0.47-0.04-1.02-0.51-1.21c-0.48-0.19-1.02,0.04-1.21,0.51l-1.55,3.82C9.54,12.83,9.76,13.37,10.24,13.56z"/>
	<path class="st0" d="M5.08,23.92c0,2.07,1.31,3.69,2.98,3.69s2.98-1.62,2.98-3.69s-1.31-3.69-2.98-3.69S5.08,21.85,5.08,23.92z
		 M8.06,22.08c0.53,0,1.13,0.75,1.13,1.84c0,1.08-0.6,1.84-1.13,1.84S6.93,25,6.93,23.92C6.93,22.83,7.53,22.08,8.06,22.08z"/>
</g>
</svg>
