<?xml version="1.0" encoding="utf-8"?>
<!-- Generator: Adobe Illustrator 25.1.0, SVG Export Plug-In . SVG Version: 6.00 Build 0)  -->
<svg version="1.1" id="Layer_1" xmlns="http://www.w3.org/2000/svg" xmlns:xlink="http://www.w3.org/1999/xlink" x="0px" y="0px"
	 viewBox="0 0 30.91 32.73" style="enable-background:new 0 0 30.91 32.73;" xml:space="preserve">
<style type="text/css">
	.st0{fill:#55B265;}
</style>
<g>
	<g>
		<path class="st0" d="M20.87,27.72l-4.71-11.62V2.7c0-1.5-1.22-2.71-2.71-2.71H2.71C1.22-0.02,0,1.2,0,2.7v27.33
			c0,1.5,1.22,2.71,2.71,2.71h10.74c0.51,0,0.98-0.15,1.39-0.39l0,0.01l5.4-2.89c0,0,0,0,0,0l0,0v0c0.2-0.11,0.37-0.26,0.5-0.45
			C21,28.63,21.05,28.15,20.87,27.72z M2.79,28.83v-6.4L5.3,27.6L2.79,28.83z M17.51,26.84H8.04l-5.25-10.8V2.77h10.58v13.59h0
			c0,0.17,0.03,0.35,0.1,0.52L17.51,26.84z"/>
		<path class="st0" d="M12.19,24.81c1.56-0.61,2.19-2.61,1.43-4.54c-0.76-1.93-2.58-2.96-4.14-2.35c-1.56,0.61-2.19,2.61-1.43,4.54
			S10.63,25.43,12.19,24.81z M9.78,21.78c-0.4-1.01-0.12-1.93,0.38-2.13c0.5-0.2,1.33,0.29,1.73,1.3c0.4,1.01,0.12,1.93-0.38,2.13
			C11.01,23.28,10.18,22.79,9.78,21.78z"/>
		<path class="st0" d="M8.08,5.09c0.12,0,0.24,0.02,0.35,0.07C8.77,5.3,9.01,5.63,9.01,6.02l0,4.13c0,0.51-0.42,0.93-0.93,0.93
			c-0.52,0-0.93-0.42-0.93-0.93l0-4.13C7.15,5.51,7.57,5.09,8.08,5.09z"/>
	</g>
	<path class="st0" d="M30.88,7.4c0.01-0.04,0.03-0.08,0.03-0.12c0-0.45-0.36-0.81-0.81-0.81h0.01V4.55c0-2.28-1.66-4.32-3.93-4.54
		c-2.6-0.25-4.81,1.8-4.81,4.35v2.11h0c-0.45,0-0.81,0.36-0.81,0.81v6.73c0,0.44,0.36,0.8,0.8,0.8h8.75c0.44,0,0.8-0.36,0.8-0.8V7.4
		H30.88z M27.68,6.46h-3.91V4.36c0-1.08,0.88-1.95,1.95-1.95c1.08,0,1.95,0.88,1.95,1.95V6.46z"/>
</g>
</svg>
